# xmcd
#
# Track frame offsets: 
#        150
#        9098
#        20633
#        31319
#        42786
#        52402
#        61949
#        72400
#        82455
#        94353
#        104362
#        116496
#        127210
#        137335
#        148489
#        158012
#        168886
#        180728
#        190285
#        200370
#        211683
#        224060
#        234467
#        244284
#        254358
#
# Disc length: 3544 seconds
#
# Revision: 2
# Processed by: cddbd v1.5.2PL0 Copyright (c) Steve Scherf et al.
# Submitted via: ExactAudioCopyFreeDBPlugin 1.0
#
DISCID=7b0dd619
DTITLE=Various Artist - Mod:  The Early Years [Real Gone Music]
DYEAR=2015
DGENRE=Rhythm and Blues
TTITLE0=The Pyramids - What is Love
TTITLE1=Jerry McCain - Twist
TTITLE2=Big Jay McNeeley - The Squat
TTITLE3=King Coleman - Down in the Basement
TTITLE4=The Dave Clark Five - Chiquita
TTITLE5=Fontella Bass - Honey Bee
TTITLE6=Arthur Alexander - Soldier of Love
TTITLE7=Bobby "Blue" Bland - Blue Moon
TTITLE8=J.C. Davis - Chicken Scratch
TTITLE9=Elmore Morris - Before I Turned My Back on You
TTITLE10=Lord Creator - Don't Stay Out Late
TTITLE11=Wilson Pickett - Baby Call on Me
TTITLE12=Yvonne Baker and The Sensations - Eyes
TTITLE13=Albert King - I Get Evil
TTITLE14=Connie Christmas - Big Chief
TTITLE15=B. Brown and His Rockin' McVouts - Candied Yams
TTITLE16=Earl King - Trick Bag
TTITLE17=Les Cooper and His Soul Rockers - Wiggle Wobble
TTITLE18=Prentice Moreland - Holy Mackerel
TTITLE19=Chris Columbo - You Can't Sit Down
TTITLE20=Harvey - Any Way You Wanta
TTITLE21=Red Prysock - Hide Away
TTITLE22=The Coasters - Teach Me How to Shimmy
TTITLE23=Bobby Lee Trammell - The Arkansas Twist
TTITLE24=Jimmy McGriff - I've Got a Woman
EXTD=
EXTT0=
EXTT1=
EXTT2=
EXTT3=
EXTT4=
EXTT5=
EXTT6=
EXTT7=
EXTT8=
EXTT9=
EXTT10=
EXTT11=
EXTT12=
EXTT13=
EXTT14=
EXTT15=
EXTT16=
EXTT17=
EXTT18=
EXTT19=
EXTT20=
EXTT21=
EXTT22=
EXTT23=
EXTT24=
PLAYORDER=
